# xmcd
#
# Track frame offsets:
# 150
# 14396
# 30762
# 46213
# 57788
# 75909
# 89373
# 106705
# 118994
# 131502
# 147537
# 159416
# 176665
# 191215
#
# Disc length: 2728 seconds
#
#
# Revision: 0
# Processed by: cddbd v1.5.2PL0 Copyright (c) Steve Scherf et al.
# Submitted via: FreeRIP 2.945 
#
DISCID=ae0aa60e
DTITLE=Edson E Hudson - Acústico Ao Vivo (Tony Sorriso)
DYEAR=2002
DGENRE=Country
TTITLE0=Azul
TTITLE1=Mil Razões Para Chorar
TTITLE2=Deixa Eu Te Amar
TTITLE3=Festa Louca
TTITLE4=Meu Anjo
TTITLE5=Me Bate, Me Xinga
TTITLE6=Cidadão
TTITLE7=Mulher, Cerveja E Viola
TTITLE8=A Força Da Paixão
TTITLE9=Saudade
TTITLE10=Zoião
TTITLE11=Jura
TTITLE12=Te Quero Pra Mim
TTITLE13=Pot-Pourri: Pagode Em Brasilia - Pagode - A Coisa Tá Feia
EXTD=
EXTT0=
EXTT1=
EXTT2=
EXTT3=
EXTT4=
EXTT5=
EXTT6=
EXTT7=
EXTT8=
EXTT9=
EXTT10=
EXTT11=
EXTT12=
EXTT13=
PLAYORDER=
